<svg width="1600" height="900" viewBox="0 0 1600 900" fill="none" xmlns="http://www.w3.org/2000/svg">
  <rect width="1600" height="900" rx="36" fill="#F4F6F2"/>
  <rect x="42" y="42" width="1516" height="816" rx="32" fill="#FFFFFF" stroke="#D5DDD8"/>
  <rect x="82" y="82" width="1436" height="104" rx="26" fill="#EDF2EE"/>
  <rect x="118" y="108" width="54" height="54" rx="18" fill="#D9EFE7"/>
  <path d="M145 124L154 132V148L145 156L136 148V132L145 124Z" fill="#1D6B58"/>
  <text x="194" y="132" fill="#5B6E69" font-family="Arial, sans-serif" font-size="15" letter-spacing="3">TECH BUILDERS PROGRAM · CREATE AND CONQUER</text>
  <text x="194" y="165" fill="#10201D" font-family="Arial, sans-serif" font-size="42" font-weight="700">RepoGuardian</text>
  <text x="194" y="194" fill="#5B6E69" font-family="Arial, sans-serif" font-size="20">AI-powered GitHub security and code-risk copilot for repository triage.</text>
  <rect x="82" y="214" width="980" height="132" rx="28" fill="#FFFFFF" stroke="#D5DDD8"/>
  <text x="112" y="252" fill="#5B6E69" font-family="Arial, sans-serif" font-size="14" letter-spacing="3">REPOSITORY INTAKE</text>
  <text x="112" y="292" fill="#10201D" font-family="Arial, sans-serif" font-size="30" font-weight="700">Paste a public GitHub repo URL and run a security review</text>
  <rect x="112" y="311" width="690" height="46" rx="18" fill="#EDF2EE"/>
  <text x="136" y="340" fill="#5B6E69" font-family="Courier New, monospace" font-size="16">github.com/Rohan5commit/RepoGuardian/tree/main/demo/sample-repo</text>
  <rect x="816" y="311" width="138" height="46" rx="18" fill="#1D6B58"/>
  <text x="842" y="340" fill="white" font-family="Arial, sans-serif" font-size="16" font-weight="700">Scan Repo</text>
  <rect x="1086" y="214" width="432" height="644" rx="28" fill="#FFFFFF" stroke="#D5DDD8"/>
  <text x="1116" y="252" fill="#5B6E69" font-family="Arial, sans-serif" font-size="14" letter-spacing="3">AGENT FLOW</text>
  <g>
    <rect x="1116" y="280" width="372" height="84" rx="22" fill="#D9EFE7"/>
    <text x="1140" y="314" fill="#10201D" font-family="Arial, sans-serif" font-size="22" font-weight="700">Intake Agent</text>
    <text x="1140" y="342" fill="#355650" font-family="Arial, sans-serif" font-size="15">Mapped repo structure and selected high-signal files</text>
  </g>
  <g>
    <rect x="1116" y="380" width="372" height="84" rx="22" fill="#EDF2EE"/>
    <text x="1140" y="414" fill="#10201D" font-family="Arial, sans-serif" font-size="22" font-weight="700">Detection Agent</text>
    <text x="1140" y="442" fill="#5B6E69" font-family="Arial, sans-serif" font-size="15">Secrets, auth, config, routes, dependencies</text>
  </g>
  <g>
    <rect x="1116" y="480" width="372" height="84" rx="22" fill="#EDF2EE"/>
    <text x="1140" y="514" fill="#10201D" font-family="Arial, sans-serif" font-size="22" font-weight="700">Context Agent</text>
    <text x="1140" y="542" fill="#5B6E69" font-family="Arial, sans-serif" font-size="15">Grounded findings with nearby code context</text>
  </g>
  <g>
    <rect x="1116" y="580" width="372" height="84" rx="22" fill="#EDF2EE"/>
    <text x="1140" y="614" fill="#10201D" font-family="Arial, sans-serif" font-size="22" font-weight="700">Remediation Agent</text>
    <text x="1140" y="642" fill="#5B6E69" font-family="Arial, sans-serif" font-size="15">NVIDIA NIM structured explanation and fix</text>
  </g>
  <g>
    <rect x="1116" y="680" width="372" height="84" rx="22" fill="#EDF2EE"/>
    <text x="1140" y="714" fill="#10201D" font-family="Arial, sans-serif" font-size="22" font-weight="700">Prioritization Agent</text>
    <text x="1140" y="742" fill="#5B6E69" font-family="Arial, sans-serif" font-size="15">Ranks the top actions for small teams</text>
  </g>
  <rect x="82" y="368" width="460" height="220" rx="28" fill="#FFFFFF" stroke="#D5DDD8"/>
  <text x="112" y="408" fill="#5B6E69" font-family="Arial, sans-serif" font-size="14" letter-spacing="3">CURRENT SCAN</text>
  <text x="112" y="447" fill="#10201D" font-family="Arial, sans-serif" font-size="30" font-weight="700">demo/sample-repo</text>
  <circle cx="420" cy="483" r="64" fill="#D9EFE7"/>
  <circle cx="420" cy="483" r="49" fill="#FFFFFF"/>
  <text x="395" y="490" fill="#10201D" font-family="Arial, sans-serif" font-size="34" font-weight="700">62</text>
  <text x="394" y="512" fill="#5B6E69" font-family="Arial, sans-serif" font-size="12" letter-spacing="2">SCORE</text>
  <rect x="82" y="610" width="460" height="248" rx="28" fill="#FFFFFF" stroke="#D5DDD8"/>
  <text x="112" y="650" fill="#5B6E69" font-family="Arial, sans-serif" font-size="14" letter-spacing="3">TOP ACTIONS</text>
  <rect x="112" y="676" width="400" height="50" rx="18" fill="#F9E0DC"/>
  <text x="134" y="707" fill="#B23F36" font-family="Arial, sans-serif" font-size="17" font-weight="700">Rotate exposed secrets and purge git history</text>
  <rect x="112" y="736" width="400" height="50" rx="18" fill="#FDE7DB"/>
  <text x="134" y="767" fill="#CF622E" font-family="Arial, sans-serif" font-size="17" font-weight="700">Harden JWT and browser token handling</text>
  <rect x="112" y="796" width="400" height="50" rx="18" fill="#D9EFE7"/>
  <text x="134" y="827" fill="#1D6B58" font-family="Arial, sans-serif" font-size="17" font-weight="700">Upgrade stale dependencies on the request path</text>
  <rect x="566" y="368" width="496" height="490" rx="28" fill="#FFFFFF" stroke="#D5DDD8"/>
  <text x="596" y="408" fill="#5B6E69" font-family="Arial, sans-serif" font-size="14" letter-spacing="3">FINDINGS</text>
  <rect x="596" y="432" width="436" height="142" rx="24" fill="#EDF2EE"/>
  <rect x="620" y="456" width="96" height="30" rx="15" fill="#F9E0DC"/>
  <text x="641" y="476" fill="#B23F36" font-family="Arial, sans-serif" font-size="12" font-weight="700" letter-spacing="2">CRITICAL</text>
  <text x="620" y="516" fill="#10201D" font-family="Arial, sans-serif" font-size="24" font-weight="700">Environment file with likely live secrets is committed</text>
  <text x="620" y="548" fill="#5B6E69" font-family="Arial, sans-serif" font-size="16">Evidence-backed remediation with code context and export-ready reporting.</text>
  <rect x="596" y="592" width="436" height="236" rx="24" fill="#0E1715"/>
  <text x="620" y="632" fill="#CDE8DF" font-family="Courier New, monospace" font-size="17">1: JWT_SECRET=super-secret-production-signing-key</text>
  <text x="620" y="666" fill="#CDE8DF" font-family="Courier New, monospace" font-size="17">2: OPENAI_API_KEY=sk-live-demo-repoguardian-...</text>
  <text x="620" y="700" fill="#CDE8DF" font-family="Courier New, monospace" font-size="17">3: SUPABASE_SERVICE_ROLE_KEY=service-role-demo-...</text>
  <text x="620" y="756" fill="#6FD1B1" font-family="Arial, sans-serif" font-size="15">RepoGuardian demo dashboard preview asset</text>
</svg>
